HIERARCHY
ROOT Hips
{
  OFFSET 13.6774 106.653 -34.4427
  CHANNELS 6 Xposition Yposition Zposition Zrotation Xrotation Yrotation
  JOINT ToSpine
  {
    OFFSET -2.69724 7.43032 -0.144315
    CHANNELS 3 Zrotation Xrotation Yrotation
    JOINT Spine
    {
      OFFSET -0.0310711 10.7595 1.96963
      CHANNELS 3 Zrotation Xrotation Yrotation
      JOINT Spine1
      {
        OFFSET 19.9056 3.91189 0.764692
        CHANNELS 3 Zrotation Xrotation Yrotation
        JOINT Neck
        {
          OFFSET 25.9749 7.03908 -0.130764
          CHANNELS 3 Zrotation Xrotation Yrotation
          JOINT Head
          {
            OFFSET 9.52751 0.295786 -0.907742
            CHANNELS 3 Zrotation Xrotation Yrotation
            End Site
            {
              OFFSET 16.4037 0.713936 2.7358
            }
          }
        }
        JOINT LeftShoulder
        {
          OFFSET 17.7449 4.33886 11.7777
          CHANNELS 3 Zrotation Xrotation Yrotation
          JOINT LeftArm
          {
            OFFSET 0.911315 1.27913 9.80584
            CHANNELS 3 Zrotation Xrotation Yrotation
            JOINT LeftForeArm
            {
              OFFSET 28.6126 1.18197 -3.53199
              CHANNELS 3 Zrotation Xrotation Yrotation
              JOINT LeftHand
              {
                OFFSET 27.5088 0.0218783 0.327423
                CHANNELS 3 Zrotation Xrotation Yrotation
                End Site
                {
                  OFFSET 18.6038 -0.000155887 0.382096
                }
              }
            }
          }
        }
        JOINT RightShoulder
        {
          OFFSET 17.1009 2.89543 -12.2328
          CHANNELS 3 Zrotation Xrotation Yrotation
          JOINT RightArm
          {
            OFFSET 1.4228 0.178766 -10.211
            CHANNELS 3 Zrotation Xrotation Yrotation
            JOINT RightForeArm
            {
              OFFSET 28.733 1.87905 2.64907
              CHANNELS 3 Zrotation Xrotation Yrotation
              JOINT RightHand
              {
                OFFSET 27.4588 0.290562 -0.101845
                CHANNELS 3 Zrotation Xrotation Yrotation
                End Site
                {
                  OFFSET 17.8396 -0.255518 -0.000602873
                }
              }
            }
          }
        }
      }
    }
  }
  JOINT LeftUpLeg
  {
    OFFSET -5.61296 -2.22332 -10.2353
    CHANNELS 3 Zrotation Xrotation Yrotation
    JOINT LeftLeg
    {
      OFFSET 2.56703 -44.7417 -7.93097
      CHANNELS 3 Zrotation Xrotation Yrotation
      JOINT LeftFoot
      {
        OFFSET 3.16933 -46.5642 -3.96578
        CHANNELS 3 Zrotation Xrotation Yrotation
        JOINT LeftToeBase
        {
          OFFSET 0.346054 -6.02161 12.8035
          CHANNELS 3 Zrotation Xrotation Yrotation
          End Site
          {
            OFFSET 0.134235 -1.35082 5.13018
          }
        }
      }
    }
  }
  JOINT RightUpLeg
  {
    OFFSET -5.7928 -1.72406 10.6446
    CHANNELS 3 Zrotation Xrotation Yrotation
    JOINT RightLeg
    {
      OFFSET -2.57161 -44.7178 -7.85259
      CHANNELS 3 Zrotation Xrotation Yrotation
      JOINT RightFoot
      {
        OFFSET -3.10148 -46.5936 -4.03391
        CHANNELS 3 Zrotation Xrotation Yrotation
        JOINT RightToeBase
        {
          OFFSET -0.0828122 -6.13587 12.8035
          CHANNELS 3 Zrotation Xrotation Yrotation
          End Site
          {
            OFFSET -0.131328 -1.35082 5.13018
          }
        }
      }
    }
  }
}
MOTION
Frames: 15
Frame Time: 0.03333333333333333
0.0000 93.1000 0.0000 6.1299 -74.0866 -84.1704 -70.8358 -1.1431 88.5455 136.8690 61.5437 -47.0796 -5.3687 19.1482 -0.4743 -146.1377 15.5796 169.5871 -133.4806 48.5865 159.5058 -0.2392 -9.8702 3.5934 -108.8970 13.6690 -106.9051 -8.4247 34.0686 8.9977 17.6528 -0.5814 1.5582 -1.4082 -1.7368 -8.1112 -81.9820 -23.1261 93.8533 18.2497 -3.4597 81.1959 0.1938 0.0264 6.9439 -3.5022 29.5040 65.6243 -8.4841 68.7150 -3.4711 2.7986 9.9766 0.9332 -3.9948 0.4045 14.5883 -51.0553 -41.5982 95.8116 1.8595 35.1861 11.0301 -4.2423 -2.3709 -1.7651 1.3873 15.9086 -13.6749 
0.0000 93.1000 0.0000 -21.1455 -71.8953 -115.6449 -71.0220 -1.7052 88.4661 136.8239 62.4194 -49.5356 -6.4853 22.2384 -4.5300 -141.9658 13.4094 171.1551 -135.3008 47.9653 166.1426 -0.4564 -8.2942 6.4355 -106.2106 3.6383 -96.8512 -7.3466 22.0493 8.0786 17.3348 0.0920 3.2424 -1.4172 -0.5509 -8.6470 -82.9317 -19.6915 87.2802 14.3833 -5.4577 72.9035 -0.8609 -0.7879 6.5272 -16.1494 37.8932 69.6510 -4.7418 55.8327 -10.4186 0.2490 10.5368 1.4352 -3.5668 2.8043 15.8832 -34.9076 -40.1193 105.0564 1.2670 47.9906 6.6088 -5.2195 1.0050 -2.0368 1.9370 13.3901 -15.8225 
0.0000 93.1000 0.0000 -33.4249 -70.2131 -129.6905 -71.0145 -0.7914 88.3235 134.7625 62.6840 -51.1561 -4.3932 23.9360 -6.3682 -142.5242 12.2798 172.8022 -137.1454 47.8314 169.7673 0.6175 -6.9761 6.9396 -101.6642 4.0392 -83.9303 -6.3150 12.1021 5.8103 16.1062 -0.5149 3.4692 -1.1433 -0.7532 -7.1612 -87.3886 -16.6939 80.4075 13.0450 -6.6733 62.2199 0.0027 -0.0161 5.4038 -31.7801 39.5006 75.3065 -3.9720 42.9843 -13.0577 -2.2246 10.3565 2.0652 -3.6974 1.9720 16.0265 -22.3534 -37.0407 109.9196 8.5766 70.4383 1.3063 -6.7161 -0.6583 -1.2129 4.7090 3.4656 -19.5597 
0.0000 93.1000 0.0000 -27.6232 -70.7756 -125.1235 -70.9667 -0.9717 88.1895 132.8253 61.7621 -51.1515 -2.6742 22.4514 -7.0376 -142.9729 13.1119 174.5000 -138.2833 47.9042 172.0810 0.4504 -5.7575 6.4533 -97.7821 3.9829 -74.7587 -7.4532 9.1961 0.9828 15.1007 -0.5887 2.0915 -1.3468 -2.1453 -4.5638 -91.6971 -13.7142 72.9327 13.2967 -9.5474 51.1027 2.7086 0.0127 4.1131 -36.8667 36.6940 77.4735 -3.3452 37.3295 -12.0949 -4.1513 8.4005 2.1000 -4.8641 1.2676 19.0740 -14.5585 -37.2825 108.0341 125.1410 83.5189 -116.3250 -7.9458 -3.9439 -0.2805 6.8237 -5.5847 -18.8148 
0.0000 93.1000 0.0000 -21.0711 -70.9942 -116.0977 -70.9260 -0.7065 88.2495 133.8730 60.1114 -49.6776 -2.6363 20.3995 -5.9992 -145.3559 13.1002 175.8337 -139.1733 47.9182 171.9955 0.6827 -2.6663 4.0489 -93.1262 12.0826 -68.8742 -6.3958 2.8275 -8.7335 12.8747 -0.3211 1.8593 -0.9838 -3.8160 -2.8553 -92.8327 -14.7584 65.5615 9.5925 -8.1075 42.2412 3.7610 -0.1263 4.0492 -34.8508 36.0605 79.3208 -3.0260 37.8689 -14.1055 -4.1627 8.2380 1.6587 -5.9149 -1.3278 21.7141 -10.8636 -35.4319 101.0831 165.0766 66.8119 -151.9555 -8.0595 -6.8828 0.2921 6.3130 -7.7339 -15.8808 
0.0000 93.1000 0.0000 -20.0867 -70.1083 -113.8817 -70.8210 -0.3653 88.5044 134.8960 57.7976 -50.8919 -2.3762 18.7463 -4.6061 -148.9159 12.1451 174.9660 -135.2820 45.8541 168.4190 1.1622 -0.3068 -0.8697 -85.2446 23.2137 -67.9004 -5.6389 -13.8378 -19.0802 9.7218 -0.2251 1.8384 -0.5654 -4.8508 0.0330 -90.9681 -19.7551 60.6627 4.9657 -3.7605 38.2684 3.0308 -0.1854 3.7286 -33.1787 33.9052 83.3219 -3.5013 44.7568 -14.6646 -1.8743 5.6552 0.7717 -6.7247 -11.7388 26.6943 -6.2318 -30.5655 90.4164 167.5341 54.8936 -149.8342 -9.8697 -7.5582 0.7004 5.4642 -11.1731 -9.9912 
0.0000 93.1000 0.0000 -20.3667 -69.9604 -116.1891 -70.7846 -0.6080 88.6967 134.9019 56.1433 -54.3945 -1.0691 18.0028 -2.9649 -154.8751 11.5497 172.8030 -135.0328 44.0654 165.9679 1.2067 1.9862 -8.8865 -87.2336 26.5874 -69.9748 -5.7724 -19.7413 -23.6001 9.1798 -0.0530 1.0755 -0.4753 -5.0719 6.4530 -89.1932 -26.0370 61.2235 3.3732 -1.4478 37.0561 1.6081 -0.5655 3.1962 -29.6201 29.8116 86.5897 -4.9805 54.2513 -8.4689 3.5420 2.3572 -0.7015 -6.6964 -21.8921 23.8931 -0.7082 -25.5761 79.0268 167.7136 53.4119 -146.5297 -10.2834 -7.4024 0.6161 6.5268 -15.4593 -7.6471 
0.0000 93.1000 0.0000 -9.0079 -69.0799 -107.3212 -70.9123 -0.5587 88.4445 133.0720 57.2317 -57.7883 0.4834 16.0277 1.4862 -160.9589 12.2579 173.2552 -135.0947 45.3266 165.8829 0.9772 1.6823 -19.5305 -92.4093 25.0927 -81.0209 -5.1732 -14.3120 -20.8830 9.0041 0.0289 -0.0094 -0.1949 -5.9126 14.1481 -90.8570 -31.2313 66.3669 2.4085 -0.0059 31.0255 -1.0930 -0.8661 2.6223 -17.4417 24.1891 83.1992 -10.3531 69.8577 -4.8099 4.5944 2.2040 -1.5088 -7.2257 -26.9888 21.7357 3.0434 -20.9301 69.0589 165.7270 60.9248 -144.6646 -10.1497 -5.8508 0.9008 7.5054 -17.8510 -8.1852 
0.0000 93.1000 0.0000 8.7995 -68.0150 -91.0614 -71.2239 0.3549 88.6306 133.0291 56.7861 -55.9260 2.9834 15.9726 2.7833 -162.1097 15.1664 174.0113 -136.7130 50.3891 167.6620 1.3418 -1.8198 -24.5210 -98.3030 25.1964 -95.9412 -5.1713 -1.9667 -10.9148 9.1279 -0.3127 -0.6122 0.2310 -5.0223 22.0951 -90.3106 -34.6598 74.2991 3.6909 -7.2167 21.3597 -4.4247 -0.6273 2.7198 -11.1513 18.0662 85.3015 -14.8850 74.3424 -4.2353 4.5218 2.8400 -1.9732 -8.0902 -31.7507 16.8549 4.3429 -18.2006 64.5951 159.1788 74.0037 -141.8416 -9.3127 -3.7839 1.7452 6.3299 -9.9553 -8.6416 
0.0000 93.1000 0.0000 25.1425 -68.8548 -79.3518 -71.1948 0.3221 88.3844 137.0716 54.5690 -57.3785 6.0105 16.3659 -0.3915 -163.9137 19.7818 177.2348 -135.8708 54.8367 166.6164 1.0062 -4.3997 -27.7063 -98.4328 27.6366 -112.1260 -5.6065 9.4350 -6.9945 8.7283 -0.3302 -0.6796 0.2786 -3.0673 26.1165 -95.6163 -33.7572 79.6064 2.6677 -21.1408 14.1457 -6.3422 -0.6837 2.8882 -11.8019 11.4755 93.6416 -20.8275 77.8401 0.8493 4.3940 4.2747 -1.7628 -8.7799 -35.9289 14.2902 0.0390 -16.4626 71.7383 145.0070 80.5677 -130.1303 -6.9373 -3.2871 1.2988 6.7529 4.5216 -19.5148 
0.0000 93.1000 0.0000 47.4487 -69.3167 -60.3794 -71.2572 2.1706 88.4981 141.4165 52.8059 -59.0445 7.8625 16.4840 -0.8136 -164.1912 23.1716 178.9810 -135.4464 58.6208 167.3777 1.9788 -6.4573 -28.3935 -84.3384 28.1178 -128.0003 -2.4849 10.0301 -11.7184 9.4289 -0.6936 -1.6929 1.5582 -0.9786 26.0816 -96.5491 -34.9987 85.7142 1.8659 -22.5066 12.2788 -2.6263 -0.4688 3.5925 -13.5149 4.7448 99.2991 -33.9814 82.0887 14.5737 6.1815 2.7963 -3.1973 -8.4132 -31.9942 12.0288 -2.3405 -15.3598 82.2489 151.1265 80.3813 -142.5915 -7.1180 -2.7377 3.4179 11.9757 -21.5063 -22.3953 
0.0000 93.1000 0.0000 56.1773 -67.9674 -52.4820 -71.3146 1.0606 88.6238 142.0826 54.0353 -57.0328 8.7055 17.4109 -1.2743 -162.1896 25.9535 -179.4378 -134.1554 61.5176 167.2017 1.1381 -6.9394 -28.8166 -65.8008 21.4719 -141.4556 2.1316 1.4221 -23.0355 10.3744 -0.0833 -3.0814 1.3453 -0.3316 25.1261 -94.5284 -35.4299 92.9553 0.8474 -13.5618 13.1591 0.5506 -1.1605 4.4697 -13.6962 -1.2257 101.5861 -56.9713 84.2197 38.4539 7.0749 5.2507 -3.2654 -10.0375 -38.7533 11.3077 -0.7173 -13.0965 91.9048 158.8225 75.8380 -154.6503 -8.3013 -0.4325 3.2389 12.9325 -29.8720 -17.3741 
0.0000 93.1000 0.0000 52.4635 -69.6837 -51.5004 -71.1478 -1.1056 88.4177 145.9637 54.6050 -54.8985 8.4380 18.9356 -0.6905 -160.8867 26.2387 -178.2076 -135.6264 61.9684 167.8568 0.4523 -6.6583 -30.5842 -65.8073 25.3330 -140.8150 5.5630 5.8295 -31.9980 12.2208 -1.5414 -2.5479 -1.8455 0.7338 27.1267 -94.0321 -32.8417 100.6728 0.3085 -0.4712 16.9214 -0.0786 0.4831 2.4120 -13.3396 -2.6639 97.9262 -78.2838 84.6604 63.8989 8.3316 4.4139 -0.3036 -9.7720 -42.0980 10.1975 -2.2731 -10.3977 92.4555 160.3853 77.3147 -156.5290 -6.9248 -0.6188 -0.6681 11.1627 -30.4924 -18.6721 
0.0000 93.1000 0.0000 52.7135 -70.8185 -50.6684 -70.9869 0.8955 88.3268 148.3273 55.1623 -56.0381 9.0723 19.1933 0.5244 -160.2911 26.2260 179.5493 -133.4121 61.4216 165.5941 1.3260 -5.7436 -29.9392 -66.3502 30.0841 -139.7285 9.2223 9.4312 -36.1083 14.7746 -0.5823 -2.5844 0.5992 0.6723 26.3292 -89.8806 -33.8708 107.8407 -2.4296 7.7821 22.2017 2.9996 -0.6921 5.2468 -16.5349 -3.4791 98.0969 -55.1847 84.1294 41.2226 8.5771 6.5433 -3.2933 -10.4502 -44.2265 6.8953 -6.9324 -10.6495 92.9421 152.5943 81.0853 -151.8119 -7.4676 -1.7344 2.7734 13.5081 -31.7116 -18.1210 
0.0000 93.1000 0.0000 46.9761 -72.1642 -58.0194 -71.2453 -0.0325 88.3012 147.2005 56.7851 -57.7215 8.8483 20.9524 0.5938 -159.9976 24.9692 178.3250 -135.4141 60.9347 163.4192 0.8437 -5.7508 -30.3100 -65.7725 34.3398 -139.4711 12.8084 13.8825 -37.6158 16.1707 -0.4792 -1.2783 -0.1690 1.2770 25.4343 -90.0428 -37.8435 111.7360 1.9309 2.0163 25.3207 1.8525 -0.7097 5.4371 -18.2080 -3.6000 101.0510 -33.9050 81.6955 20.7470 8.7393 5.3478 -2.5032 -10.0589 -42.3941 7.4795 -10.0361 -9.2165 95.2259 135.4830 84.2502 -134.3998 -8.3715 -4.6051 1.6150 12.9169 -29.8406 -18.3068 
